{"title":"Supernatural S11E09 1080p HDTV X264-DIMENSION[rartv]","uid":12965189,"size":2004840532,"categoryP":"video","categoryS":"hd___tv_shows","magnet":"?xt=urn:btih:b02c69345e5d36c1190ec32e0c7f57e29f8a2153&amp;dn=Supernatural+S11E09+1080p+HDTV+X264-DIMENSION%5Brartv%5D&amp;tr=udp%3A%2F%2Ftracker.leechers-paradise.org%3A6969&amp;tr=udp%3A%2F%2Fzer0day.ch%3A1337&amp;tr=udp%3A%2F%2Fopen.demonii.com%3A1337&amp;tr=udp%3A%2F%2Ftracker.coppersurfer.tk%3A6969&amp;tr=udp%3A%2F%2Fexodus.desync.com%3A6969","seeders":0,"leechers":3,"uploader":"cheerfulcaca","files":3,"time":1449883020,"description":"***FALL FINALE***\n\nSEASON 11, EPISODE 9 &quot;O BROTHER, WHERE ART THOU?&quot; SYNOPSIS:\n\nWith Amara leaving a trail of bodies on her search for God, Sam enlists Crowley and Rowena to set up a meeting between him and Lucifer on the cage. \n\n\nSERIES INFO:\n\n8.6/10 IMDb\n9.1/10 TV.com\n\nThis haunting series follows the thrilling yet terrifying journeys of Sam and Dean Winchester, two brothers who face an increasingly sinister landscape as they hunt monsters. After losing their mother to a supernatural force, the brothers were raised by their father as soldiers who track mysterious and demonic creatures. Violent memories and relationship-threatening secrets add additional burdens on Sam and Dean as they investigate all things that go bump in the night. As old tricks and tools are rendered useless and friends betray them, the brothers must rely on each other as they encounter new enemies.\n\n\nMEDIA INFO:\n\nVideo:\n\nID : 1\nFormat : AVC\nFormat/Info : Advanced Video Codec\nFormat profile :   \nFormat settings, CABAC : Yes\nFormat settings, ReFrames : 4 frames\nCodec ID : V_MPEG4/ISO/AVC\nDuration : 42mn 25s\nBit rate : 5 791 Kbps\nWidth : 1 920 pixels\nHeight : 1 068 pixels\nDisplay aspect ratio : 16:9\nFrame rate mode : Constant\nFrame rate : 23.976 fps\nColor space : YUV\nChroma subsampling : 4:2:0\nBit depth : 8 bits\nScan type : Progressive\nBits/(Pixel*Frame) : 0.118\nStream size : 1.72 GiB (92%)\nWriting library : x264 core 148 r2638 7599210\nEncoding settings : cabac=1 / ref=4 / deblock=1:-3:-3 / analyse=0x3:0x133 / me=umh / subme=11 / psy=1 / psy_rd=1.00:0.00 / mixed_ref=1 / me_range=32 / chroma_me=1 / trellis=2 / 8x8dct=1 / cqm=0 / deadzone=21,11 / fast_pskip=0 / chroma_qp_offset=-2 / threads=20 / lookahead_threads=2 / sliced_threads=0 / nr=0 / decimate=1 / interlaced=0 / bluray_compat=0 / constrained_intra=0 / bframes=5 / b_pyramid=2 / b_adapt=2 / b_bias=0 / direct=3 / weightb=1 / open_gop=0 / weightp=2 / keyint=250 / keyint_min=23 / scenecut=40 / intra_refresh=0 / rc_lookahead=60 / rc=crf / mbtree=1 / crf=17.0 / qcomp=0.60 / qpmin=0 / qpmax=69 / qpstep=4 / ip_ratio=1.40 / aq=1:1.00\nLanguage : English\nDefault : Yes\nForced : No\nColor range : Limited\nMatrix coefficients : BT.709\nDURATION : 00:42:25.460000000\nNUMBER_OF_FRAMES : 61030\nNUMBER_OF_BYTES : 1882072187\n_STATISTICS_WRITING_APP : mkvmerge v8.4.0 ('A better way to fly') 64bit\n_STATISTICS_WRITING_DATE_UTC : 2015-12-09 22:38:43\n_STATISTICS_TAGS : BPS DURATION NUMBER_OF_FRAMES NUMBER_OF_BYTES\n\nAudio:\n\nID : 2\nFormat : AC-3\nFormat/Info : Audio Coding 3\nMode extension : CM (complete main)\nFormat settings, Endianness : Big\nCodec ID : A_AC3\nDuration : 42mn 25s\nBit rate mode : Constant\nBit rate : 384 Kbps\nChannel(s) : 6 channels\nChannel positions : Front: L C R, Side: L R, LFE\nSampling rate : 48.0 KHz\nCompression mode : Lossy\nStream size : 117 MiB (6%)\nDefault : Yes\nForced : No\n \nhttps://rarbg.to","torrent":{"xt":"urn:btih:b02c69345e5d36c1190ec32e0c7f57e29f8a2153","amp;dn":"Supernatural+S11E09+1080p+HDTV+X264-DIMENSION%5Brartv%5D","amp;tr":["udp%3A%2F%2Ftracker.leechers-paradise.org%3A6969","udp%3A%2F%2Fzer0day.ch%3A1337","udp%3A%2F%2Fopen.demonii.com%3A1337","udp%3A%2F%2Ftracker.coppersurfer.tk%3A6969","udp%3A%2F%2Fexodus.desync.com%3A6969"],"infoHash":"b02c69345e5d36c1190ec32e0c7f57e29f8a2153","infoHashBuffer":{"type":"Buffer","data":[176,44,105,52,94,93,54,193,25,14,195,46,12,127,87,226,159,138,33,83]},"announce":[],"urlList":[]}}